<?xml version="1.0" encoding="UTF-8"?>
<svg version="1.1" xmlns="http://www.w3.org/2000/svg" width="192" height="188">
<path d="M0 0 C2.63671875 0.3203125 2.63671875 0.3203125 4.3046875 2.078125 C4.80613281 2.85929688 5.30757813 3.64046875 5.82421875 4.4453125 C11.39321398 12.01584935 18.94749169 15.0147536 27.28149414 18.89477539 C28.66389282 19.53854126 28.66389282 19.53854126 30.07421875 20.1953125 C30.99388428 20.62255615 31.9135498 21.0497998 32.86108398 21.48999023 C40.56991183 25.13783764 47.55653468 29.24012843 53.63671875 35.3203125 C56.00195672 42.24817081 55.45293275 50.1367703 52.57421875 56.7578125 C52.19136719 57.51964844 51.80851563 58.28148437 51.4140625 59.06640625 C50.41271964 61.96979735 50.61499946 63.43384097 51.63671875 66.3203125 C53.38867214 68.36847686 53.38867214 68.36847686 55.63671875 70.2578125 C66.22487076 80.44324558 78.35705925 99.17867809 78.734375 114.2109375 C78.72776974 115.66409474 78.71590602 117.11723606 78.69921875 118.5703125 C78.69470703 119.31539063 78.69019531 120.06046875 78.68554688 120.828125 C78.67381121 122.6588889 78.65587725 124.48961123 78.63671875 126.3203125 C78.30671875 126.3203125 77.97671875 126.3203125 77.63671875 126.3203125 C77.30671875 122.0303125 76.97671875 117.7403125 76.63671875 113.3203125 C74.60731508 121.9452781 73.37414448 130.62459797 75.63671875 139.3203125 C77.14824974 152.25229989 78.76878431 167.02272144 73.63671875 179.3203125 C73.36422743 180.05407073 73.09173611 180.78782896 72.81098747 181.54382229 C71.38515405 184.46478459 70.14291376 186.22317026 67.63671875 188.3203125 C61.89308315 189.68690812 56.21436005 189.45860194 50.34033203 189.34204102 C48.55621978 189.33950131 46.77209812 189.34092939 44.98799133 189.34602356 C40.15089794 189.34860459 35.31581558 189.2957182 30.4791894 189.23285794 C25.42241793 189.17657177 20.36559962 189.17130754 15.30856323 189.16062927 C5.73538268 189.13266291 -3.83687218 189.05881766 -13.4096452 188.96848387 C-24.3090832 188.86786505 -35.20856556 188.81839763 -46.10835242 188.77322495 C-68.52717513 188.67916723 -90.94517631 188.52087835 -113.36328125 188.3203125 C-113.4565816 178.16601909 -113.52734743 168.01183018 -113.57052994 157.85719299 C-113.59127117 153.14031673 -113.61933774 148.42373695 -113.66503906 143.70703125 C-113.70898351 139.14229482 -113.73251914 134.57784082 -113.74279022 130.01290894 C-113.75009551 128.2844499 -113.76435653 126.55600366 -113.78620148 124.82766724 C-114.05477244 102.66687311 -108.86346838 82.97846547 -93.49609375 66.29296875 C-78.4335254 52.0384781 -58.0515127 47.89817385 -38.36328125 44.3203125 C-38.87600586 44.05404053 -39.38873047 43.78776855 -39.91699219 43.51342773 C-63.39845841 31.29686106 -63.39845841 31.29686106 -72.36328125 25.3203125 C-72.61328125 22.2578125 -72.61328125 22.2578125 -72.36328125 19.3203125 C-70.7728492 17.72988045 -68.94823128 17.92990099 -66.74609375 17.6640625 C-52.33519884 15.75218493 -39.25095826 12.27219206 -25.5546875 7.4453125 C-19.11904352 5.18422014 -12.65856989 3.48150993 -6.01171875 1.9765625 C-3.35758791 1.31890176 -2.64359141 0.35830495 0 0 Z M40.1875 45.6328125 C38.91616211 46.03886719 38.91616211 46.03886719 37.61914062 46.453125 C36.73806641 46.73929688 35.85699219 47.02546875 34.94921875 47.3203125 C33.61020508 47.74957031 33.61020508 47.74957031 32.24414062 48.1875 C30.04039481 48.89458422 27.83801895 49.60565813 25.63671875 50.3203125 C27.15399055 53.35485609 29.6130994 53.89407696 32.63671875 55.3203125 C38.52560764 58.09809028 38.52560764 58.09809028 39.63671875 60.3203125 C40.62671875 60.3203125 41.61671875 60.3203125 42.63671875 60.3203125 C45.25079747 54.95841149 47.12900403 50.28596046 47.63671875 44.3203125 C44.72474763 44.3203125 42.92707738 44.75026408 40.1875 45.6328125 Z " fill="#060607" transform="translate(113.36328125,-0.3203125)"/>
<path d="M0 0 C2.93600747 2.1143262 5.49509049 4.39370129 8 7 C9.0828125 8.11375 9.0828125 8.11375 10.1875 9.25 C16.55171289 18.90604714 20.29926845 30.62210591 22 42 C20.92621094 42.51949219 19.85242188 43.03898437 18.74609375 43.57421875 C17.30973435 44.2783165 15.8735455 44.98276225 14.4375 45.6875 C13.73302734 46.02716797 13.02855469 46.36683594 12.30273438 46.71679688 C4.01194133 50.69976104 4.01194133 50.69976104 -2.4140625 57.04296875 C-3.89903446 62.00277509 -3.80855926 67.09946746 -1.4375 71.75 C3.49811344 79.15342016 10.66077136 81.16983961 19 83 C31.05470049 84.89215485 43.52684986 85.77862915 55.625 83.9375 C56.73198242 83.77483643 56.73198242 83.77483643 57.86132812 83.60888672 C63.78612432 82.50516776 69.73338593 80.04212684 73.42211914 75.09130859 C76.25623938 70.24987375 76.8029594 65.50175882 76 60 C74.34056722 54.46855741 71.86746832 51.05013844 67 48 C61.56764572 45.0965003 55.8907008 43.24912877 49.96875 41.61328125 C48 41 48 41 47 40 C47.42187031 27.76576106 52.56239382 11.32259861 60.76171875 1.99609375 C66.71561446 -3.3637039 72.16507137 -4.41639548 80.0625 -4.2421875 C85.92195252 -3.75909434 89.42245771 -1.91524652 93.3125 2.5625 C94.21055279 3.70659465 95.10666556 4.85221737 96 6 C96.99 6.99 96.99 6.99 98 8 C98.66 7.67 99.32 7.34 100 7 C101.99960012 6.960008 104.00047242 6.95653201 106 7 C106.98350025 9.08129104 107.96164458 11.16511359 108.9375 13.25 C109.48277344 14.41015625 110.02804688 15.5703125 110.58984375 16.765625 C112.89217431 22.04631669 113.12825247 26.52447747 113.0625 32.25 C113.05798828 32.99507812 113.05347656 33.74015625 113.04882812 34.5078125 C113.03709246 36.3385764 113.0191585 38.16929873 113 40 C112.67 40 112.34 40 112 40 C111.67 35.71 111.34 31.42 111 27 C108.97059633 35.6249656 107.73742573 44.30428547 110 53 C111.51153099 65.93198739 113.13206556 80.70240894 108 93 C107.70620893 93.73375823 107.41241787 94.46751646 107.10972404 95.22350979 C105.67268755 98.04639192 104.38953659 99.90047603 102 102 C96.87229812 103.34496097 91.79423612 103.13914544 86.53955078 103.02172852 C84.95248052 103.01918835 83.36539969 103.02061779 81.77833557 103.02571106 C77.47831063 103.02829042 73.18055137 102.97543403 68.88105249 102.91254544 C64.38483877 102.85622986 59.88857131 102.85099279 55.39205933 102.84031677 C46.88130191 102.8123588 38.3715867 102.73852582 29.86128795 102.64817137 C20.17103333 102.54752569 10.48072855 102.49807853 0.79008126 102.45291245 C-19.14052722 102.35887393 -39.07019792 102.20060219 -59 102 C-58.99787003 101.24564226 -58.99574005 100.49128452 -58.99354553 99.71406746 C-58.99188889 98.72401144 -58.99023224 97.73395542 -58.98852539 96.71389771 C-58.98639542 95.73266497 -58.98426544 94.75143223 -58.98207092 93.74046516 C-59.00194965 90.70199494 -59.17231411 87.70637651 -59.4375 84.6796875 C-59.52805664 83.57963379 -59.61861328 82.47958008 -59.71191406 81.34619141 C-59.80698242 80.20069824 -59.90205078 79.05520508 -60 77.875 C-64.17594439 23.18758883 -64.17594439 23.18758883 -51 7 C-38.60445868 -5.58575423 -15.50082957 -9.30049774 0 0 Z " fill="#FCFCFC" transform="translate(79,86)"/>
<path d="M0 0 C2.63671875 0.3203125 2.63671875 0.3203125 4.3046875 2.078125 C4.80613281 2.85929688 5.30757813 3.64046875 5.82421875 4.4453125 C11.39321398 12.01584935 18.94749169 15.0147536 27.28149414 18.89477539 C28.66389282 19.53854126 28.66389282 19.53854126 30.07421875 20.1953125 C30.99388428 20.62255615 31.9135498 21.0497998 32.86108398 21.48999023 C51.91236273 30.50512965 51.91236273 30.50512965 54.2578125 37.0546875 C54.73739627 39.9223018 54.7308077 42.66412953 54.69921875 45.5703125 C54.69019531 46.64796875 54.68117187 47.725625 54.671875 48.8359375 C54.65447266 50.06570312 54.65447266 50.06570312 54.63671875 51.3203125 C54.30671875 51.3203125 53.97671875 51.3203125 53.63671875 51.3203125 C53.30671875 48.3503125 52.97671875 45.3803125 52.63671875 42.3203125 C51.64671875 42.3203125 50.65671875 42.3203125 49.63671875 42.3203125 C49.44335938 43.21234375 49.25 44.104375 49.05078125 45.0234375 C48.79039062 46.19390625 48.53 47.364375 48.26171875 48.5703125 C48.00648438 49.73046875 47.75125 50.890625 47.48828125 52.0859375 C46.63671875 55.3203125 46.63671875 55.3203125 45.546875 57.4921875 C43.52186104 61.55959751 44.23151491 67.10470099 45.63671875 71.3203125 C42.35203797 70.70443485 40.31565858 69.53892737 37.63671875 67.5703125 C32.31075116 63.91145173 26.65131342 61.61546229 20.63671875 59.3203125 C19.79753906 58.99804688 18.95835937 58.67578125 18.09375 58.34375 C16.27949539 57.656581 14.458922 56.98611753 12.63671875 56.3203125 C12.49234375 57.4546875 12.34796875 58.5890625 12.19921875 59.7578125 C11.63671875 63.3203125 11.63671875 63.3203125 10.63671875 64.3203125 C7.61922576 64.76551638 4.67305774 65.08234108 1.63671875 65.3203125 C0.77949219 65.41054687 -0.07773438 65.50078125 -0.9609375 65.59375 C-7.84741363 66.00054606 -13.72536906 64.60754744 -20.23828125 62.5703125 C-21.04700684 62.31822021 -21.85573242 62.06612793 -22.68896484 61.80639648 C-27.45447379 60.22135322 -31.41026471 58.44713587 -35.36328125 55.3203125 C-35.36328125 54.6603125 -35.36328125 54.0003125 -35.36328125 53.3203125 C-57.79671954 57.46084621 -80.18537944 62.25135496 -94.0625 82.1875 C-103.34337965 97.40479816 -104.90645744 114.11938089 -106.13671875 131.47119141 C-106.34504817 134.09102361 -106.61564134 136.69131015 -106.92578125 139.30078125 C-108.83109965 155.61670129 -108.55634441 171.92033923 -108.36328125 188.3203125 C-110.01328125 188.3203125 -111.66328125 188.3203125 -113.36328125 188.3203125 C-113.4565816 178.16601909 -113.52734743 168.01183018 -113.57052994 157.85719299 C-113.59127117 153.14031673 -113.61933774 148.42373695 -113.66503906 143.70703125 C-113.70898351 139.14229482 -113.73251914 134.57784082 -113.74279022 130.01290894 C-113.75009551 128.2844499 -113.76435653 126.55600366 -113.78620148 124.82766724 C-114.05477244 102.66687311 -108.86346838 82.97846547 -93.49609375 66.29296875 C-78.4335254 52.0384781 -58.0515127 47.89817385 -38.36328125 44.3203125 C-38.87600586 44.05404053 -39.38873047 43.78776855 -39.91699219 43.51342773 C-63.39845841 31.29686106 -63.39845841 31.29686106 -72.36328125 25.3203125 C-72.61328125 22.2578125 -72.61328125 22.2578125 -72.36328125 19.3203125 C-70.7728492 17.72988045 -68.94823128 17.92990099 -66.74609375 17.6640625 C-52.33519884 15.75218493 -39.25095826 12.27219206 -25.5546875 7.4453125 C-19.11904352 5.18422014 -12.65856989 3.48150993 -6.01171875 1.9765625 C-3.35758791 1.31890176 -2.64359141 0.35830495 0 0 Z M40.1875 45.6328125 C38.91616211 46.03886719 38.91616211 46.03886719 37.61914062 46.453125 C36.73806641 46.73929688 35.85699219 47.02546875 34.94921875 47.3203125 C33.61020508 47.74957031 33.61020508 47.74957031 32.24414062 48.1875 C30.04039481 48.89458422 27.83801895 49.60565813 25.63671875 50.3203125 C27.15399055 53.35485609 29.6130994 53.89407696 32.63671875 55.3203125 C38.52560764 58.09809028 38.52560764 58.09809028 39.63671875 60.3203125 C40.62671875 60.3203125 41.61671875 60.3203125 42.63671875 60.3203125 C45.25079747 54.95841149 47.12900403 50.28596046 47.63671875 44.3203125 C44.72474763 44.3203125 42.92707738 44.75026408 40.1875 45.6328125 Z " fill="#010103" transform="translate(113.36328125,-0.3203125)"/>
<path d="M0 0 C0.99 1.485 0.99 1.485 2 3 C4.56192842 4.14024674 7.05134156 5.13306993 9.6875 6.0625 C10.38294922 6.31837891 11.07839844 6.57425781 11.79492188 6.83789062 C23.5957766 11.1241021 33.595265 11.65396467 46 10 C46.66 7.69 47.32 5.38 48 3 C54.87738202 4.39878956 61.09023948 6.75395509 67.375 9.8125 C68.39110352 10.29106445 68.39110352 10.29106445 69.42773438 10.77929688 C74.13429904 13.14424067 76.99152435 15.64990682 80 20 C80 20.99 80 21.98 80 23 C78.82244141 23.14695312 78.82244141 23.14695312 77.62109375 23.296875 C71.11906567 24.22231703 66.47652392 25.38782465 61 29 C60.01 29.33 59.02 29.66 58 30 C56.93083722 31.75508167 56.93083722 31.75508167 56 34 C55.51144531 34.89589844 55.02289063 35.79179688 54.51953125 36.71484375 C49.78700324 45.64925017 46.54177929 54.78464614 43.48046875 64.41015625 C41.2548533 71.36851439 41.2548533 71.36851439 40 74 C37.59454362 75.20272819 36.05003047 75.10071472 33.375 75.0625 C32.55773437 75.05347656 31.74046875 75.04445313 30.8984375 75.03515625 C30.27195312 75.02355469 29.64546875 75.01195312 29 75 C28.72905518 74.04915527 28.72905518 74.04915527 28.45263672 73.07910156 C21.73490755 47.22586621 21.73490755 47.22586621 3.75 28.6875 C-10.16064242 21.73217879 -24.21488853 21.18668874 -39 26 C-48.96942771 30.34948045 -55.95858776 36.65430537 -60.12890625 46.7265625 C-66.54100829 64.66151949 -67.16315194 86.2678591 -64 105 C-63.67 105.33 -63.34 105.66 -63 106 C-62.62790533 107.40698298 -62.30171868 108.82626498 -62 110.25 C-61.82726563 111.05824219 -61.65453125 111.86648437 -61.4765625 112.69921875 C-60.97293285 115.13067664 -60.47184208 117.56214927 -60 120 C-59.34 120 -58.68 120 -58 120 C-57.80160975 121.37347099 -57.61689017 122.74891846 -57.4375 124.125 C-57.33308594 124.89070313 -57.22867188 125.65640625 -57.12109375 126.4453125 C-57 129 -57 129 -58 135 C-62.95 135 -67.9 135 -73 135 C-73.17162841 132.12522411 -73.33733088 129.2502866 -73.5 126.375 C-73.54769531 125.58609375 -73.59539062 124.7971875 -73.64453125 123.984375 C-74.37530311 110.83048158 -73.86379498 97.91113433 -72.6875 84.8125 C-72.61964294 84.04508484 -72.55178589 83.27766968 -72.48187256 82.48699951 C-70.20369925 56.9172828 -67.73548723 32.77767627 -47 15 C-37.38385395 7.87750609 -26.10669753 4.30114765 -14.5625 1.6875 C-13.80517578 1.51589355 -13.04785156 1.34428711 -12.26757812 1.16748047 C-8.15334339 0.2922473 -4.22001944 -0.47737776 0 0 Z " fill="#5C5CFB" transform="translate(78,53)"/>
<path d="M0 0 C1.93894775 1.79086582 3.65205662 3.73736382 5.421875 5.6953125 C11.89892322 11.48540106 20.95010353 14.90508835 29 18 C29 18.66 29 19.32 29 20 C29.78375 20.185625 30.5675 20.37125 31.375 20.5625 C36.47907213 22.5865286 40.60368497 25.75054976 45 29 C42.81927511 31.18072489 41.63054557 31.60251377 38.73730469 32.51220703 C37.85588806 32.7923465 36.97447144 33.07248596 36.06634521 33.3611145 C35.11117004 33.65702484 34.15599487 33.95293518 33.171875 34.2578125 C32.19011292 34.56572723 31.20835083 34.87364197 30.19683838 35.19088745 C28.11642801 35.84120921 26.03499474 36.48826619 23.95263672 37.13232422 C20.77350674 38.11771395 17.59958766 39.11870934 14.42578125 40.12109375 C12.40394375 40.7509571 10.38181724 41.37989364 8.359375 42.0078125 C7.41229675 42.3077713 6.46521851 42.6077301 5.48944092 42.91677856 C-1.47622203 45.05032376 -6.32698288 46.21970067 -13.10128784 42.7130127 C-13.70465973 42.38490601 -14.30803162 42.05679932 -14.9296875 41.71875 C-15.56488312 41.38580933 -16.20007874 41.05286865 -16.85452271 40.70983887 C-18.86762616 39.65130617 -20.87120902 38.57603864 -22.875 37.5 C-24.24419664 36.77621701 -25.61398304 36.05354851 -26.984375 35.33203125 C-30.3298798 33.56751251 -33.66695603 31.78793684 -37 30 C-37 29.34 -37 28.68 -37 28 C-37.99 27.7525 -38.98 27.505 -40 27.25 C-44.28095196 26.04187859 -48.09059215 24.09178706 -52 22 C-52 21.34 -52 20.68 -52 20 C-52.928125 19.731875 -53.85625 19.46375 -54.8125 19.1875 C-57.85184289 18.05519579 -58.90073617 17.30099489 -61 15 C-59.9790625 14.8040625 -58.958125 14.608125 -57.90625 14.40625 C-47.54742657 12.31146571 -37.65329314 9.39670396 -27.67773438 5.90625 C-6.64075655 -1.40477542 -6.64075655 -1.40477542 0 0 Z " fill="#3E3E7C" transform="translate(114,8)"/>
<path d="M0 0 C3.39272447 1.80154209 6.02425847 3.7697172 8.4375 6.8125 C9.77373427 12.00896659 9.72173104 15.63386625 7.25 20.3125 C2.81312402 25.61210186 -1.20066446 26.98893338 -8 28 C-12.94022315 28.30721259 -17.86392185 28.32475502 -22.8125 28.3125 C-24.10220703 28.32861328 -25.39191406 28.34472656 -26.72070312 28.36132812 C-38.66659724 28.36737056 -49.50921833 27.31997163 -58.375 18.6875 C-60.57035461 15.05672122 -60.80537878 13.17332643 -60 9 C-53.9629712 1.93225896 -43.52162741 -3.40306731 -34.2421875 -4.40625 C-32.02966905 -4.38645118 -29.81624712 -4.30763972 -27.609375 -4.1484375 C-7.45571718 -3.00197194 -7.45571718 -3.00197194 0 0 Z " fill="#FBC641" transform="translate(141,137)"/>
<path d="M0 0 C8.03264188 9.89357651 8.70010765 20.88035871 8 33 C7.67 33 7.34 33 7 33 C6.505 26.565 6.505 26.565 6 20 C3.97059633 28.6249656 2.73742573 37.30428547 5 46 C6.85467219 61.86775095 8.54691338 79.73841454 -1.23828125 93.41796875 C-3.38539907 95.34609007 -4.52065968 95.54734421 -7.375 95.5625 C-9.169375 95.2840625 -9.169375 95.2840625 -11 95 C-10.38125 93.14375 -10.38125 93.14375 -9.75 91.25 C-9.48058594 90.41597656 -9.21117187 89.58195312 -8.93359375 88.72265625 C-8 86 -8 86 -6.91015625 83.43359375 C-2.45063673 72.27685986 -2.958556 59.69779813 -5 48 C-5.43003561 39.71931434 -4.91829141 31.81245326 -3.8125 23.625 C-2.9214922 16.92014862 -2.99205548 12.2472694 -6 6 C-5.195625 5.7525 -4.39125 5.505 -3.5625 5.25 C-0.828919 4.27761141 -0.828919 4.27761141 -0.1875 1.875 C-0.125625 1.25625 -0.06375 0.6375 0 0 Z " fill="#5C5CF6" transform="translate(184,93)"/>
<path d="M0 0 C3.80542232 2.76757987 7.31033013 5.93907986 9.75 10 C9.54296875 12.02026367 9.54296875 12.02026367 8.75 14 C6.0919123 15.31256191 3.58356693 16.36869597 0.8125 17.375 C-8.43359838 20.95764637 -16.59414488 24.89274826 -23.6796875 31.99609375 C-25.25 33 -25.25 33 -27.34814453 32.56274414 C-27.97575684 32.37703857 -28.60336914 32.19133301 -29.25 32 C-29.35901505 29.16560863 -29.43777904 26.33549797 -29.5 23.5 C-29.53351562 22.70851562 -29.56703125 21.91703125 -29.6015625 21.1015625 C-29.69795079 15.22187667 -28.53750134 10.91517263 -25.25 6 C-22.875 3.6875 -22.875 3.6875 -20.25 2 C-19.38375 1.4225 -18.5175 0.845 -17.625 0.25 C-11.78941826 -1.91132657 -5.93199231 -1.8252284 0 0 Z " fill="#040404" transform="translate(79.25,116)"/>
<path d="M0 0 C4.8828053 3.98596351 6.63370121 7.613205 7.55859375 13.83984375 C8.36843955 22.8881209 8.36843955 22.8881209 7.0625 25.5 C3.53105895 24.18276622 0.46536837 22.57953888 -2.75 20.625 C-8.15216676 17.60008101 -13.44378805 16.12763682 -19.4543457 14.88134766 C-23.29593743 14.05777711 -26.00547807 13.16206595 -28.9375 10.5 C-27.17556821 4.73367778 -23.93516235 2.61869092 -18.8125 -0.25 C-12.92863416 -2.57528323 -5.75028881 -2.78239781 0 0 Z " fill="#040404" transform="translate(165.9375,113.5)"/>
<path d="M0 0 C1.18239258 0.01353516 1.18239258 0.01353516 2.38867188 0.02734375 C4.32174666 0.05077496 6.2546638 0.08664162 8.1875 0.125 C8.5175 1.445 8.8475 2.765 9.1875 4.125 C8.5275 4.125 7.8675 4.125 7.1875 4.125 C7.1875 4.785 7.1875 5.445 7.1875 6.125 C8.5075 6.455 9.8275 6.785 11.1875 7.125 C10.6615625 7.99125 10.6615625 7.99125 10.125 8.875 C9.03832593 11.48301776 9.25684867 12.51917629 10.1875 15.125 C4.2745696 14.48229017 -1.15494531 12.93496216 -6.8125 11.125 C-6.8125 9.805 -6.8125 8.485 -6.8125 7.125 C-9.1225 6.795 -11.4325 6.465 -13.8125 6.125 C-13.8125 4.805 -13.8125 3.485 -13.8125 2.125 C-9.18433267 -0.23082065 -5.05715865 -0.11021469 0 0 Z " fill="#2E2E5D" transform="translate(106.8125,20.875)"/>
<path d="M0 0 C2.0625 0.4375 2.0625 0.4375 4 1 C4.50925766 13.71258003 4.50925766 13.71258003 1 20 C0.39005422 24.49945513 0.85642099 27.99865252 3 32 C2.625 34.25 2.625 34.25 2 36 C0.140625 35.75390625 0.140625 35.75390625 -2 35 C-5.69149424 29.79317016 -6.71348619 24.21752251 -6 18 C-5.01789629 15.9911515 -4.01559401 13.99212671 -3 12 C-2.36634882 9.10795102 -1.87982196 6.21884276 -1.4296875 3.29296875 C-1 1 -1 1 0 0 Z " fill="#37376F" transform="translate(163,41)"/>
<path d="M0 0 C4.19477817 1.21783882 7.67489303 2.87539197 11.40454102 5.07250977 C19.24168496 9.75895489 19.24168496 9.75895489 28.125 9.5703125 C28.74375 9.38210937 29.3625 9.19390625 30 9 C31.7634375 8.7215625 31.7634375 8.7215625 33.5625 8.4375 C34.7690625 8.2209375 34.7690625 8.2209375 36 8 C36 8.99 36 9.98 36 11 C27.86482711 14.68834164 19.70227427 13.8756263 11.47192383 10.8984375 C7.58884916 9.39525518 3.72711704 7.86355852 0 6 C0 4.02 0 2.04 0 0 Z " fill="#383872" transform="translate(84,47)"/>
<path d="M0 0 C3.17218843 3.62535821 4.42902597 7.51150278 6 12 C3.03 12.66 0.06 13.32 -3 14 C-3.99 11.36 -4.98 8.72 -6 6 C-5.195625 5.7525 -4.39125 5.505 -3.5625 5.25 C-0.828919 4.27761141 -0.828919 4.27761141 -0.1875 1.875 C-0.125625 1.25625 -0.06375 0.6375 0 0 Z " fill="#05050A" transform="translate(184,93)"/>
<path d="M0 0 C4.75 1.875 4.75 1.875 7 3 C7 3.66 7 4.32 7 5 C7.763125 4.34 8.52625 3.68 9.3125 3 C12 1 12 1 15 1 C14.42558597 4.87729472 12.70745361 7.21519058 10 10 C6 10 6 10 3.375 7.5625 C2.59125 6.716875 1.8075 5.87125 1 5 C0.34 4.67 -0.32 4.34 -1 4 C-0.67 2.68 -0.34 1.36 0 0 Z " fill="#E38C3B" transform="translate(111,149)"/>
<path d="M0 0 C0 0.99 0 1.98 0 3 C-4.07723734 4.95031692 -7.31692422 5.21581971 -11.8125 5.125 C-12.97394531 5.10695313 -14.13539062 5.08890625 -15.33203125 5.0703125 C-16.21246094 5.04710937 -17.09289062 5.02390625 -18 5 C-14.88446461 2.92297641 -12.60989929 2.25093145 -9 1.375 C-7.948125 1.11460938 -6.89625 0.85421875 -5.8125 0.5859375 C-3 0 -3 0 0 0 Z " fill="#313165" transform="translate(120,55)"/>
<path d="M0 0 C-0.33 1.65 -0.66 3.3 -1 5 C-3.31 5.33 -5.62 5.66 -8 6 C-7.625 3.5625 -7.625 3.5625 -7 1 C-4.53721199 -0.231394 -2.7204945 -0.07159196 0 0 Z " fill="#5B5BF2" transform="translate(184,93)"/>
<path d="" fill="#000000" transform="translate(0,0)"/>
<path d="" fill="#000000" transform="translate(0,0)"/>
<path d="" fill="#5E5EFF" transform="translate(0,0)"/>
</svg>
